<mxfile host="app.diagrams.net" modified="2024-03-24T07:37:01.189Z" agent="Mozilla/5.0 (Windows NT 10.0; Win64; x64) AppleWebKit/537.36 (KHTML, like Gecko) Chrome/123.0.0.0 Safari/537.36" etag="8lK72JJULOdarhU3DMVa" version="24.1.0" type="github">
  <diagram name="Page-1" id="QCtMmvZFLUbFCdP3Oipx">
    <mxGraphModel dx="773" dy="695" grid="0" gridSize="10" guides="1" tooltips="1" connect="1" arrows="1" fold="1" page="1" pageScale="1" pageWidth="850" pageHeight="1100" math="0" shadow="0">
      <root>
        <mxCell id="0" />
        <mxCell id="1" parent="0" />
        <mxCell id="AAVzQ4mEJsl7NlCGHPwe-4" value="" style="edgeStyle=orthogonalEdgeStyle;rounded=0;hachureGap=4;orthogonalLoop=1;jettySize=auto;html=1;fontFamily=Architects Daughter;fontSource=https%3A%2F%2Ffonts.googleapis.com%2Fcss%3Ffamily%3DArchitects%2BDaughter;endArrow=block;endFill=1;strokeWidth=2;" edge="1" parent="1" source="AAVzQ4mEJsl7NlCGHPwe-1" target="AAVzQ4mEJsl7NlCGHPwe-2">
          <mxGeometry relative="1" as="geometry" />
        </mxCell>
        <mxCell id="AAVzQ4mEJsl7NlCGHPwe-1" value="&lt;b style=&quot;&quot;&gt;&lt;font face=&quot;Verdana&quot; style=&quot;font-size: 12px;&quot;&gt;Preprocessing Image Dataset&amp;nbsp;&lt;/font&gt;&lt;/b&gt;" style="rounded=0;whiteSpace=wrap;html=1;hachureGap=4;fontFamily=Architects Daughter;fontSource=https%3A%2F%2Ffonts.googleapis.com%2Fcss%3Ffamily%3DArchitects%2BDaughter;fillColor=#ffe6cc;strokeColor=#d79b00;strokeWidth=2;" vertex="1" parent="1">
          <mxGeometry x="120" y="110" width="120" height="60" as="geometry" />
        </mxCell>
        <mxCell id="AAVzQ4mEJsl7NlCGHPwe-5" value="" style="edgeStyle=orthogonalEdgeStyle;rounded=0;hachureGap=4;orthogonalLoop=1;jettySize=auto;html=1;fontFamily=Architects Daughter;fontSource=https%3A%2F%2Ffonts.googleapis.com%2Fcss%3Ffamily%3DArchitects%2BDaughter;strokeWidth=2;endArrow=block;endFill=1;" edge="1" parent="1" source="AAVzQ4mEJsl7NlCGHPwe-2" target="AAVzQ4mEJsl7NlCGHPwe-3">
          <mxGeometry relative="1" as="geometry" />
        </mxCell>
        <mxCell id="AAVzQ4mEJsl7NlCGHPwe-2" value="&lt;font size=&quot;1&quot; face=&quot;Verdana&quot;&gt;&lt;b style=&quot;font-size: 12px;&quot;&gt;Enhanced Images&lt;/b&gt;&lt;/font&gt;" style="shape=cylinder3;whiteSpace=wrap;html=1;boundedLbl=1;backgroundOutline=1;size=15;hachureGap=4;fontFamily=Architects Daughter;fontSource=https%3A%2F%2Ffonts.googleapis.com%2Fcss%3Ffamily%3DArchitects%2BDaughter;fillColor=#fff2cc;strokeColor=#d6b656;strokeWidth=2;" vertex="1" parent="1">
          <mxGeometry x="130" y="230" width="100" height="80" as="geometry" />
        </mxCell>
        <mxCell id="AAVzQ4mEJsl7NlCGHPwe-7" value="" style="edgeStyle=orthogonalEdgeStyle;rounded=0;hachureGap=4;orthogonalLoop=1;jettySize=auto;html=1;fontFamily=Architects Daughter;fontSource=https%3A%2F%2Ffonts.googleapis.com%2Fcss%3Ffamily%3DArchitects%2BDaughter;strokeWidth=2;endArrow=block;endFill=1;" edge="1" parent="1" source="AAVzQ4mEJsl7NlCGHPwe-3" target="AAVzQ4mEJsl7NlCGHPwe-6">
          <mxGeometry relative="1" as="geometry" />
        </mxCell>
        <mxCell id="AAVzQ4mEJsl7NlCGHPwe-3" value="&lt;font face=&quot;Verdana&quot;&gt;&lt;b&gt;Segmentation&lt;/b&gt;&lt;/font&gt;" style="rounded=0;whiteSpace=wrap;html=1;hachureGap=4;fontFamily=Architects Daughter;fontSource=https%3A%2F%2Ffonts.googleapis.com%2Fcss%3Ffamily%3DArchitects%2BDaughter;fillColor=#dae8fc;strokeColor=#6c8ebf;strokeWidth=2;" vertex="1" parent="1">
          <mxGeometry x="310" y="240" width="120" height="60" as="geometry" />
        </mxCell>
        <mxCell id="AAVzQ4mEJsl7NlCGHPwe-9" value="" style="edgeStyle=orthogonalEdgeStyle;rounded=0;hachureGap=4;orthogonalLoop=1;jettySize=auto;html=1;fontFamily=Architects Daughter;fontSource=https%3A%2F%2Ffonts.googleapis.com%2Fcss%3Ffamily%3DArchitects%2BDaughter;strokeWidth=2;endArrow=block;endFill=1;" edge="1" parent="1" source="AAVzQ4mEJsl7NlCGHPwe-6" target="AAVzQ4mEJsl7NlCGHPwe-8">
          <mxGeometry relative="1" as="geometry" />
        </mxCell>
        <mxCell id="AAVzQ4mEJsl7NlCGHPwe-6" value="&lt;font face=&quot;Verdana&quot;&gt;&lt;b&gt;Feature Extraction&lt;/b&gt;&lt;/font&gt;" style="rounded=0;whiteSpace=wrap;html=1;hachureGap=4;fontFamily=Architects Daughter;fontSource=https%3A%2F%2Ffonts.googleapis.com%2Fcss%3Ffamily%3DArchitects%2BDaughter;fillColor=#e1d5e7;strokeColor=#9673a6;strokeWidth=2;" vertex="1" parent="1">
          <mxGeometry x="310" y="350" width="120" height="60" as="geometry" />
        </mxCell>
        <mxCell id="AAVzQ4mEJsl7NlCGHPwe-8" value="&lt;font face=&quot;Verdana&quot;&gt;&lt;b&gt;Hybrid Classification&lt;/b&gt;&lt;/font&gt;" style="rounded=0;whiteSpace=wrap;html=1;hachureGap=4;fontFamily=Architects Daughter;fontSource=https%3A%2F%2Ffonts.googleapis.com%2Fcss%3Ffamily%3DArchitects%2BDaughter;fillColor=#d5e8d4;strokeColor=#82b366;strokeWidth=2;" vertex="1" parent="1">
          <mxGeometry x="520" y="350" width="120" height="60" as="geometry" />
        </mxCell>
        <mxCell id="AAVzQ4mEJsl7NlCGHPwe-10" value="&lt;b&gt;&lt;font face=&quot;Verdana&quot;&gt;CNN&lt;/font&gt;&lt;/b&gt;" style="rounded=0;whiteSpace=wrap;html=1;hachureGap=4;fontFamily=Architects Daughter;fontSource=https%3A%2F%2Ffonts.googleapis.com%2Fcss%3Ffamily%3DArchitects%2BDaughter;strokeWidth=2;fillColor=#fad7ac;strokeColor=#b46504;" vertex="1" parent="1">
          <mxGeometry x="430" y="460" width="120" height="60" as="geometry" />
        </mxCell>
        <mxCell id="AAVzQ4mEJsl7NlCGHPwe-11" value="&lt;font face=&quot;Verdana&quot;&gt;&lt;b&gt;LSTM&lt;/b&gt;&lt;/font&gt;" style="rounded=0;whiteSpace=wrap;html=1;hachureGap=4;fontFamily=Architects Daughter;fontSource=https%3A%2F%2Ffonts.googleapis.com%2Fcss%3Ffamily%3DArchitects%2BDaughter;strokeWidth=2;fillColor=#fad7ac;strokeColor=#b46504;" vertex="1" parent="1">
          <mxGeometry x="620" y="460" width="120" height="60" as="geometry" />
        </mxCell>
        <mxCell id="AAVzQ4mEJsl7NlCGHPwe-12" value="" style="strokeWidth=2;html=1;shape=mxgraph.flowchart.annotation_2;align=left;labelPosition=right;pointerEvents=1;hachureGap=4;fontFamily=Architects Daughter;fontSource=https%3A%2F%2Ffonts.googleapis.com%2Fcss%3Ffamily%3DArchitects%2BDaughter;direction=south;" vertex="1" parent="1">
          <mxGeometry x="490" y="410" width="186.25" height="50" as="geometry" />
        </mxCell>
        <mxCell id="AAVzQ4mEJsl7NlCGHPwe-13" value="" style="strokeWidth=2;html=1;shape=mxgraph.flowchart.annotation_2;align=left;labelPosition=right;pointerEvents=1;hachureGap=4;fontFamily=Architects Daughter;fontSource=https%3A%2F%2Ffonts.googleapis.com%2Fcss%3Ffamily%3DArchitects%2BDaughter;direction=north;" vertex="1" parent="1">
          <mxGeometry x="490" y="520" width="186.25" height="60" as="geometry" />
        </mxCell>
        <mxCell id="AAVzQ4mEJsl7NlCGHPwe-16" value="" style="edgeStyle=orthogonalEdgeStyle;rounded=0;hachureGap=4;orthogonalLoop=1;jettySize=auto;html=1;fontFamily=Architects Daughter;fontSource=https%3A%2F%2Ffonts.googleapis.com%2Fcss%3Ffamily%3DArchitects%2BDaughter;strokeWidth=2;endArrow=block;endFill=1;" edge="1" parent="1" source="AAVzQ4mEJsl7NlCGHPwe-14" target="AAVzQ4mEJsl7NlCGHPwe-15">
          <mxGeometry relative="1" as="geometry" />
        </mxCell>
        <mxCell id="AAVzQ4mEJsl7NlCGHPwe-14" value="&lt;font face=&quot;Verdana&quot;&gt;&lt;b&gt;Output Accuracy&lt;/b&gt;&lt;/font&gt;" style="verticalLabelPosition=middle;verticalAlign=middle;html=1;shape=trapezoid;perimeter=trapezoidPerimeter;whiteSpace=wrap;size=0.23;arcSize=10;flipV=1;labelPosition=center;align=center;hachureGap=4;fontFamily=Architects Daughter;fontSource=https%3A%2F%2Ffonts.googleapis.com%2Fcss%3Ffamily%3DArchitects%2BDaughter;direction=west;strokeWidth=2;fillColor=#fad9d5;strokeColor=#ae4132;" vertex="1" parent="1">
          <mxGeometry x="530" y="580" width="110" height="60" as="geometry" />
        </mxCell>
        <mxCell id="AAVzQ4mEJsl7NlCGHPwe-15" value="&lt;b&gt;&lt;font face=&quot;Verdana&quot;&gt;Performance Analysis&lt;/font&gt;&lt;/b&gt;" style="rounded=0;whiteSpace=wrap;html=1;hachureGap=4;fontFamily=Architects Daughter;fontSource=https%3A%2F%2Ffonts.googleapis.com%2Fcss%3Ffamily%3DArchitects%2BDaughter;fillColor=#b1ddf0;strokeColor=#10739e;strokeWidth=2;" vertex="1" parent="1">
          <mxGeometry x="340" y="580" width="120" height="60" as="geometry" />
        </mxCell>
      </root>
    </mxGraphModel>
  </diagram>
</mxfile>
